{
	"asset":{
		"generator":"Khronos glTF Blender I/O v4.0.44",
		"version":"2.0"
	},
	"scene":0,
	"scenes":[
		{
			"name":"Scene",
			"nodes":[
				0
			]
		}
	],
	"nodes":[
		{
			"mesh":0,
			"name":"grid1"
		}
	],
	"meshes":[
		{
			"name":"mountain1.004",
			"primitives":[
				{
					"attributes":{
						"POSITION":0,
						"NORMAL":1
					},
					"indices":2
				}
			]
		}
	],
	"accessors":[
		{
			"bufferView":0,
			"componentType":5126,
			"count":486,
			"max":[
				10,
				1.240623950958252,
				10
			],
			"min":[
				-10,
				-1.5316352844238281,
				-10
			],
			"type":"VEC3"
		},
		{
			"bufferView":1,
			"componentType":5126,
			"count":486,
			"type":"VEC3"
		},
		{
			"bufferView":2,
			"componentType":5123,
			"count":486,
			"type":"SCALAR"
		}
	],
	"bufferViews":[
		{
			"buffer":0,
			"byteLength":5832,
			"byteOffset":0,
			"target":34962
		},
		{
			"buffer":0,
			"byteLength":5832,
			"byteOffset":5832,
			"target":34962
		},
		{
			"buffer":0,
			"byteLength":972,
			"byteOffset":11664,
			"target":34963
		}
	],
	"buffers":[
		{
			"byteLength":12636,
			"uri":"floor.bin"
		}
	]
}
